<?xml version="1.0" encoding="UTF-8" standalone="no"?>
<svg xmlns="http://www.w3.org/2000/svg" width="192" height="192" viewBox="0 0 192 192">
  <circle cx="96" cy="96" r="96" fill="#2196f3"/>
  <circle cx="96" cy="96" r="80" fill="#1565c0"/>
  <path d="M96 16a80 80 0 1 0 0 160A80 80 0 0 0 96 16zm0 12a68 68 0 0 1 68 68 68 68 0 0 1-68 68 68 68 0 0 1-68-68 68 68 0 0 1 68-68z" fill="#1976d2"/>
  <path d="M96 42a54 54 0 0 0-54 54 54 54 0 0 0 54 54 54 54 0 0 0 54-54 54 54 0 0 0-54-54zm0 8a46 46 0 0 1 46 46 46 46 0 0 1-46 46 46 46 0 0 1-46-46 46 46 0 0 1 46-46z" fill="white" opacity="0.9"/>
  <path d="M130 96l-40-25v50z" fill="white"/>
  <path d="M78 68l-24 12 3 24 19 16 23-5 12-22-9-23z" fill="white" opacity="0.7"/>
  <path d="M80 72l-17 8 2 18 15 11 15-3 9-16-7-17z" fill="#1976d2"/>
  <path d="M78 96a7 7 0 0 1-7-7 7 7 0 0 1 7-7 7 7 0 0 1 7 7 7 7 0 0 1-7 7zm0-11a4 4 0 0 0-4 4 4 4 0 0 0 4 4 4 4 0 0 0 4-4 4 4 0 0 0-4-4z" fill="white" opacity="0.9"/>
  <path d="M118 112a7 7 0 0 1-7-7 7 7 0 0 1 7-7 7 7 0 0 1 7 7 7 7 0 0 1-7 7zm0-11a4 4 0 0 0-4 4 4 4 0 0 0 4 4 4 4 0 0 0 4-4 4 4 0 0 0-4-4z" fill="white" opacity="0.9"/>
</svg>