<?xml version="1.0" encoding="UTF-8" standalone="no"?>
<svg xmlns="http://www.w3.org/2000/svg" width="512" height="512" viewBox="0 0 512 512">
  <circle cx="256" cy="256" r="256" fill="#2196f3"/>
  <circle cx="256" cy="256" r="215" fill="#1565c0"/>
  <path d="M256 41a215 215 0 1 0 0 430A215 215 0 0 0 256 41zm0 32a183 183 0 0 1 183 183 183 183 0 0 1-183 183 183 183 0 0 1-183-183 183 183 0 0 1 183-183z" fill="#1976d2"/>
  <path d="M256 115a141 141 0 0 0-141 141 141 141 0 0 0 141 141 141 141 0 0 0 141-141 141 141 0 0 0-141-141zm0 21a120 120 0 0 1 120 120 120 120 0 0 1-120 120 120 120 0 0 1-120-120 120 120 0 0 1 120-120z" fill="white" opacity="0.9"/>
  <path d="M346 256l-105-65v130z" fill="white"/>
  <path d="M210 184l-64 32 8 64 50 43 62-14 32-58-23-61z" fill="white" opacity="0.7"/>
  <path d="M214 195l-45 22 5 47 39 30 40-8 24-44-18-45z" fill="#1976d2"/>
  <path d="M210 256a18 18 0 0 1-18-18 18 18 0 0 1 18-18 18 18 0 0 1 18 18 18 18 0 0 1-18 18zm0-30a12 12 0 0 0-12 12 12 12 0 0 0 12 12 12 12 0 0 0 12-12 12 12 0 0 0-12-12z" fill="white" opacity="0.9"/>
  <path d="M318 300a18 18 0 0 1-18-18 18 18 0 0 1 18-18 18 18 0 0 1 18 18 18 18 0 0 1-18 18zm0-30a12 12 0 0 0-12 12 12 12 0 0 0 12 12 12 12 0 0 0 12-12 12 12 0 0 0-12-12z" fill="white" opacity="0.9"/>
</svg>